<?xml version="1.0" encoding="utf-8"?>
<!-- Generator: Adobe Illustrator 23.0.3, SVG Export Plug-In . SVG Version: 6.00 Build 0)  -->
<svg version="1.1" id="Capa_1" xmlns="http://www.w3.org/2000/svg" xmlns:xlink="http://www.w3.org/1999/xlink" x="0px" y="0px"
	 viewBox="0 0 1200 1200" enable-background="new 0 0 1200 1200" xml:space="preserve">
<g>
	<path fill="#102039" d="M74.618,820.39c-3.339,1.169-6.693,2.739-10.221,3.461c-3.226,0.66-6.713,0.896-9.95,0.415
		c-3.568-0.53-5.555-4.737-3.796-7.949c1.588-2.901,3.907-5.462,6.179-7.918c6.391-6.912,12.806-13.809,19.432-20.493
		c6.84-6.901,10.527-15.652,14.121-24.294c6.228-14.978,10.517-30.499,13.508-46.573c3.525-18.94,4.272-38.219,8.138-57.036
		c2.799-13.623,6.352-27.127,14.133-39.019c5.356-8.186,10.333-16.655,16.187-24.468c3.796-5.066,8.754-9.298,13.391-13.693
		c13.286-12.59,28.729-22.125,45.443-29.135c17.196-7.213,30.991-18.488,43.222-32.025c9.195-10.177,18.868-19.53,32.247-24.003
		c5.347-4.877,13.622-4.392,18.547-10.135c0.629-0.733,2.036-0.885,3.122-1.127c15.075-3.356,29.668-8.757,45.064-10.729
		c4.481-0.574,9.023-1.229,13.513-1.087c19.963,0.632,39.94,1.182,59.864,2.492c10.475,0.688,20.809,3.316,31.279,4.303
		c23.978,2.259,47.85,5.589,72.077,5.217c13.117-0.201,26.383-0.787,39.473,1.853c2.745,0.553,5.983-1.521,8.8-1.095
		c9.134,1.381,17.97-0.957,26.93-1.524c19.556-1.237,39.174-2.103,58.383-6.494c3.607-0.824,7.167-1.856,10.834-2.814
		c-0.671-3.924-3.763-3.788-5.756-5.061c-2.976-1.902-3.914-4.952-2.032-7.679c1.473-2.133,3.278-4.166,5.317-5.752
		c4.758-3.7,9.66-7.232,14.665-10.593c4.979-3.344,9.919-6.675,13.845-10.873c-0.72-3.291-3.039-2.446-4.595-2.934
		c-1.431-0.448-2.993-0.483-4.417-0.944c-5.159-1.672-6.49-6.671-2.65-10.646c2.076-2.149,4.534-4.018,7.068-5.619
		c7.945-5.02,14.753-11.744,23.455-15.627c0.659-0.294,1.207-0.889,1.736-1.416c12.302-12.245,23.936-25.06,33.503-39.612
		c1.219-1.854,2.042-3.968,2.906-5.681c-1.763-3.101-4.167-2.413-6.136-1.758c-3.798,1.265-7.487,0.736-11.164-0.095
		c-6.32-1.428-8.014-7.336-3.128-11.837c4.144-3.817,8.656-7.34,13.395-10.387c20.01-12.87,36.072-29.615,49.1-49.371
		c8.982-13.62,15.193-28.575,19.787-44.129c3.926-13.294,10.469-24.975,19.329-35.473c7.104-8.417,15.573-15.175,25.211-20.497
		c5.255-2.902,11.167-5.118,15.522-9.042c7.965-7.177,17.643-11.153,26.796-16.04c7.252-3.872,15.139-6.603,22.858-9.539
		c7.708-2.931,15.604-2.392,23.346-0.036c8.305,2.528,16.489,5.356,22.927,11.675c1.566,1.537,3.637,2.559,5.933,4.13
		c9.811-7.32,19.446-14.456,29.015-21.678c3.27-2.468,3.194-2.568,9.791-1.891c0.346,9.324-0.437,18.684-1.964,27.917
		c-1.531,9.261-9.061,15.48-13.553,23.906c1.292,1.351,2.352,2.855,3.765,3.865c5.82,4.163,11.649,8.326,17.655,12.211
		c11.048,7.148,17.08,17.839,20.794,29.895c3.208,10.414,5.526,21.101,8.271,31.659c0.376,1.447,0.781,2.927,1.455,4.249
		c5.653,11.08,11.724,21.851,20.597,30.831c6.075,6.148,11.293,13.196,17.696,18.949c6.652,5.975,14.121,11.09,21.499,16.198
		c12.661,8.766,25.927,16.66,35.693,29.071c5.406,6.87,8.381,14.484,7.87,22.968c-0.564,9.369-1.13,19.007-3.763,27.916
		c-3.522,11.917-10.015,22.639-19.215,31.385c-2.456,2.334-4.923,4.671-7.536,6.823c-6.015,4.958-12.337,7.3-20.713,6.031
		c-9.521-1.443-16.885-5.455-23.674-11.872c-7.645-7.227-15.24-14.846-25.871-17.663c-6.538-1.733-13.184-3.412-19.886-4.097
		c-16.458-1.684-32.813-3.816-48.976-8.219c-2.552,3.399-2.994,7.192-3.575,10.851c-1.475,9.29-3.338,18.508-2.293,28.084
		c0.482,4.417-0.732,8.996-0.922,13.512c-0.553,13.169-1.206,26.341-1.37,39.517c-0.107,8.633,0.563,17.275,0.89,25.912
		c0.143,3.768,0.263,7.536,0.457,11.302c0.405,7.875,1.49,15.778,1.12,23.614c-0.461,9.752,0.639,19.427,0.374,29.144
		c-0.257,9.408,0.023,18.844-0.567,28.227c-1.09,17.343-4.26,34.371-9.157,51.049c-6.605,22.498-16.37,43.555-27.654,64.126
		c-9.568,17.443-19.092,35.121-24.355,54.547c-1.668,6.156-2.734,12.506-3.643,18.829c-1.984,13.811-3.694,27.662-5.51,41.497
		c-2.059,15.687-4.32,31.351-6.105,47.069c-1.572,13.841-2.752,27.731-3.837,41.62c-0.846,10.831-1.254,21.697-1.908,32.544
		c-0.659,10.917-1.511,21.823-2.037,32.746c-0.435,9.034-0.499,18.086-0.775,27.128c-0.069,2.259-0.111,4.554-0.536,6.762
		c-1.016,5.271-3.994,9.138-9.44,10.003c-12.752,2.026-25.465,2.152-38.213-1.899c-3.254-8.15-5.911-15.971-6.174-24.957
		c-0.952-32.451,0.331-64.864,0.599-97.292c0.114-13.874,0.894-27.81-1.857-41.65c-0.939,7.714-3.192,15.084-3.798,22.946
		c-1.243,16.119-3.036,32.203-4.326,48.336c-0.929,11.608-3.329,23.095-4.337,34.7c-1.434,16.509-4.87,32.815-4.583,49.511
		c0.134,7.818-1.617,9.191-9.954,10.84c-0.738,0.146-1.631-0.023-2.223,0.335c-10.573,6.393-21.266,1.28-31.885,0.302
		c-3.469-0.319-5.634-3.06-5.475-6.234c0.358-7.148-1.954-14.02-0.931-21.353c1.023-7.332-0.061-14.967-0.314-22.467
		c-0.304-9.026-0.859-18.046-1.013-27.074c-0.109-6.405,0.333-12.817,0.412-19.227c0.166-13.577,0.143-27.157,0.435-40.73
		c0.105-4.88,0.891-9.745,1.374-14.616c0.146-1.468,0.791-3.073,0.404-4.378c-2.442-8.232-0.484-16.548-0.329-24.756
		c0.249-13.188,0.817-26.332-0.024-39.536c-0.525-8.237,0.103-16.545,0.146-24.821c0.013-2.597-0.195-5.196-0.333-8.553
		c-2.231,0.148-3.991,0.056-5.657,0.409c-15.828,3.352-31.614,6.902-47.467,10.131c-6.979,1.422-14.064,2.368-21.131,3.301
		c-23.883,3.153-47.739,6.962-71.894,6.877c-16.175-0.057-32.308,1.668-48.503,0.554c-21.426-1.474-42.881-2.595-64.129-5.912
		c-4.068-0.635-8.019-1.985-12.058-2.849c-12.449-2.663-24.969-5.017-37.352-7.953c-7.664-1.818-15.13-4.476-23.331-6.952
		c-1.375,2.082-2.757,4.179-4.145,6.272c-8.582,12.94-18.157,24.896-31.563,33.321c-4.078,2.563-7.517,6.128-11.53,8.813
		c-7.511,5.024-15.122,9.916-22.881,14.547c-14.822,8.847-23.314,22.099-27.434,38.499c-4.891,19.464-7.012,39.288-8.183,59.294
		c-1.146,19.571-3.015,39.1-4.569,58.648c-0.089,1.129-0.142,2.263-0.296,3.383c-1.54,11.207-2.32,11.976-14.127,13.362
		c-6.358,0.746-12.733,1.342-19.095,2.048c-1.107,0.123-2.452,0.129-3.243,0.753c-6.874,5.422-15.213,3.393-22.895,4.446
		c-2.797,0.383-5.925-0.821-8.764-1.733c-6.541-2.101-7.624-3.735-7.704-10.632c-0.022-1.886-0.136-3.809,0.167-5.653
		c1.899-11.572,1.012-23.285,1.821-34.916c0.595-8.565,0.307-17.191,0.501-25.787c0.229-10.168,0.472-20.337,0.852-30.5
		c0.874-23.333,1.859-46.663,2.717-69.997c0.068-1.839-0.062-3.91-0.838-5.516c-3.764-7.779-7.245-15.777-11.864-23.037
		c-4.236-6.658-9.292-12.78-12.262-20.209c-0.415-1.038-0.947-2.063-1.602-2.965c-13.04-17.942-19.798-38.644-26.211-59.503
		c-3.852-12.528-5.714-25.472-7.902-38.335c-1.448-8.512-4.878-16.649-4.648-25.505c0.038-1.452-1.665-2.95-3.417-5.829
		c-0.523,9.338-0.999,16.852-1.352,24.373c-0.638,13.587-2.161,27.035-5.306,40.306c-1.036,4.37-0.774,9.039-1.721,13.439
		c-4.816,22.374-13.647,43.193-26.954,61.717c-9.706,13.511-22.13,24.625-36.161,33.806c-9.649,6.314-20.707,8.904-31.501,12.086
		c-6.646,1.959-13.518,0.212-20.219-0.66c-4.062-0.529-6.48-4.31-5.6-8.357c0.632-2.906,1.76-5.758,3.032-8.462
		c4.173-8.869,8.563-17.635,12.753-26.496C74.447,826.064,76.618,823.978,74.618,820.39z M1002.071,206.74
		c-1.218,1.558-2.115,3.932-3.541,4.31c-5.045,1.339-10.152,2.529-15.475,0.337c-7.642-3.147-15.484-5.805-23.211-8.749
		c-2.674-1.019-4.93-1.417-6.881,1.457c-1.333,1.964-3.492,1.422-4.962,0.13c-4.803-4.224-9.765-8.34-14.068-13.044
		c-6.543-7.152-14.55-11.892-23.299-15.556c-7.226-3.026-15.931-3.109-22.961-0.47c7.271,12.825,14.141,25.836,25.31,35.812
		c1.51,1.349,3.371,3.158,6.526,1.486c-6.938-7.729-8.049-19.553-18.664-24.445c-0.287-0.132-0.559-0.604-0.587-0.938
		c-0.09-1.069-0.424-2.346,0.025-3.165c0.436-0.794,1.671-1.29,2.654-1.591c0.637-0.195,1.542,0.025,2.176,0.352
		c7.031,3.618,14.186,7.035,20.989,11.045c4.46,2.629,9.128,5.38,11.382,10.489c-2.814,3.028-3.704,3.409-5.283,2.458
		c-3.039-1.831-4.841-5.853-9.292-5.294c-1.722,2.89,1.223,4.885,1.328,7.359c0.101,2.394-0.098,4.8-0.185,7.902
		c3.899,0.109,7.286-0.009,10.603,0.414c1.146,0.146,2.761,1.495,3.003,2.558c0.274,1.204-0.359,3.213-1.311,3.953
		c-1.361,1.057-3.467,1.964-5.082,1.732c-4.806-0.691-9.599-1.724-14.257-3.1c-3.473-1.025-6.727-2.79-10.122-4.243
		c-7.848,9.688-13.338,19.928-19.11,30.086c-11.578,20.376-19.947,42.16-28.988,63.636c-6.607,15.692-14.146,30.777-23.603,44.931
		c-3.13,4.683-5.904,9.609-8.729,14.488c-4.915,8.49-10.332,16.507-16.916,23.92c-7.769,8.748-15.091,17.797-25.086,24.174
		c-0.312,0.199-0.552,0.513-0.818,0.779c-4.785,4.775-9.154,10.045-16.005,12.183c-1.323,0.412-2.369,1.808-3.464,2.834
		c-7.102,6.659-14.715,12.653-22.967,17.832c-16.956,10.641-35.492,18.169-53.346,27.038c-1.634,0.812-3.709,1.671-5.358,1.354
		c-7.122-1.368-13.282,1.719-19.729,3.618c-11.557,3.402-23.059,7.122-35.357,6.622c-1.495-0.061-3.032,0.034-4.499,0.318
		c-11.88,2.301-23.988,1.934-35.968,2.613c-11.586,0.657-23.187,1.77-34.939,0.812c-12.347-1.007-24.847-0.384-37.271-0.111
		c-12.784,0.281-25.427-2.243-38.219-1.596c-1.853,0.094-3.831-0.141-5.59-0.718c-6.547-2.148-13.49-1.461-20.01-2.774
		c-6.716-1.352-13.388-1.844-20.12-2.395c-1.878-0.154-3.793-0.049-5.64-0.366c-17.817-3.056-35.756-4.377-53.827-4.005
		c-8.294,0.171-16.703-0.558-24.86,0.567c-15.623,2.154-30.981,5.53-46.007,10.8c-13.736,4.818-25.898,11.909-37.588,20.285
		c-7.462,5.347-13.307,12.234-19.097,19.115c-9.964,11.842-22.681,19.855-36.509,25.799c-18.906,8.127-36.076,18.372-50.523,33.222
		c-14.453,14.855-24.857,32.149-32.598,51.185c-1.269,3.122-2.226,6.453-2.753,9.778c-1.241,7.82-2.295,15.679-3.139,23.553
		c-2.372,22.127-5.966,44.054-11.414,65.619c-6.516,25.789-18.597,48.463-38.908,66.236c-1.306,1.143-2.324,2.617-3.479,3.939
		c2.026,1.883,3.336,0.411,4.544-0.029c3.173-1.157,6.158-2.839,9.341-3.958c3.714-1.305,6.868,1.013,6.819,5.031
		c-0.06,4.886-0.161,9.768-2.655,14.294c-3.272,5.939-6.231,12.05-9.377,18.059c-2.76,5.271-5.588,10.504-6.518,17.03
		c2.262,0.632,4.058,1.688,5.714,1.501c7.837-0.882,15.565-2.081,23.125-4.77c13.534-4.813,24.442-13.425,34.553-23.058
		c8.72-8.308,16.843-17.361,22.948-27.83c8.828-15.138,13.973-31.816,17.045-48.875c3.067-17.036,4.19-34.413,6.534-51.59
		c2.342-17.169,1.542-34.486,2.789-51.72c1.135-15.682,3.941-30.485,10.815-44.561c1.816-3.719,3.153-7.694,5.188-11.28
		c2.777-4.892,5.869-9.626,9.115-14.223c1.548-2.192,2.951-1.766,6.296,1.456c-6.994,12.416-12.242,25.629-13.714,40.099
		c-1.141,11.22-4.078,22.29-2.821,33.708c1.276,11.591,2.311,23.216,3.953,34.755c1.058,7.435,2.947,14.758,4.591,22.102
		c2.223,9.923,4.422,19.857,6.928,29.71c1.183,4.653,4.216,8.952,1.897,14.087c-0.249,0.552,0.061,1.478,0.344,2.13
		c2.81,6.493,5.523,13.034,8.548,19.427c3.858,8.151,7.893,16.222,12.043,24.229c1.196,2.307,3.098,4.239,4.594,6.401
		c8.141,11.77,16.782,23.215,22.716,36.385c2.526,5.607,4.013,11.275,3.844,17.475c-0.626,22.958-1.038,45.921-1.667,68.879
		c-0.217,7.907-0.849,15.802-1.264,23.703c-0.593,11.277-1.175,22.554-1.717,33.833c-0.053,1.117,0.124,2.263,0.327,3.371
		c0.526,2.869,2.396,4.903,5.322,4.969c5.914,0.134,11.902,0.694,18.316-1.016c0.351-5.533,0.471-10.764,1.069-15.939
		c0.648-5.603,2.505-11.153,2.503-16.727c-0.005-18.161,3.031-36.016,4.728-54c1.569-16.619,5.406-32.736,12.343-47.982
		c1.698-3.732,3.726-7.507,6.405-10.557c5.216-5.938,10.509-11.989,16.647-16.897c13.779-11.019,26.928-22.987,42.879-31.04
		c0.965-0.487,1.892-1.304,2.505-2.196c7.1-10.345,17.273-17.758,25.953-26.535c14.698-14.863,27.975-30.377,37.024-49.405
		c5.262-11.066,8.829-22.352,8.553-34.657c-0.093-4.135-0.744-8.256-0.902-12.392c-0.187-4.888-0.153-9.787-0.102-14.679
		c0.005-0.5,0.786-0.992,1.639-1.996c2.686,1.518,3.843,3.813,4.722,6.886c4.726,16.518,2.847,32.837-1.962,48.794
		c-5.871,19.477-17.472,35.716-31.057,50.59c-2.528,2.768-5.589,5.11-6.506,9.44c1.177,0.722,2.335,1.728,3.68,2.212
		c10.99,3.956,21.989,7.887,33.035,11.68c8.177,2.807,16.303,5.914,24.679,7.948c10.569,2.566,21.354,4.264,32.077,6.168
		c6.298,1.118,12.63,2.148,18.989,2.795c10.464,1.064,20.951,1.999,31.451,2.597c14.313,0.815,28.654,1.866,42.971,1.701
		c14.284-0.165,28.54-1.991,42.829-2.578c21.869-0.898,43.422-4.28,65.022-7.413c22.76-3.301,45.156-8.106,67.031-15.285
		c3.914-1.284,7.984-2.163,12.04-2.913c1.915-0.354,3.772,0.465,4.441,2.609c0.69,2.21-0.443,3.513-2.423,4.297
		c-3.102,1.23-6.194,2.48-9.447,3.785c-0.058,2.051-0.138,3.529-0.135,5.007c0.064,24.503,1.019,48.977-0.066,73.516
		c-1.283,29.002-0.883,58.075-1.486,87.112c-0.171,8.229-1.297,16.439-2.092,25.947c2.186,2.509,3.86,7.151,2.07,11.416
		c-2.461,5.865-1.296,10.793,1.101,15.651c9.137,4.203,18.392,5.061,27.921,3.517c5.396-0.874,6.911-2.233,7.654-8.029
		c2.395-18.692,4.753-37.392,6.87-56.117c2.496-22.069,4.64-44.178,7.126-66.248c0.716-6.357,2.223-12.621,3.124-18.962
		c1.695-11.938,3.185-23.904,4.809-35.851c2.229-16.396,6.808-32.384,8.248-48.94c0.634-7.291,4.766-13.378,9.141-19.105
		c0.332-0.435,1.411-0.558,2.057-0.421c0.623,0.133,1.493,0.703,1.625,1.237c0.357,1.435,0.553,2.96,0.502,4.438
		c-0.298,8.698-1.767,17.194-4.043,25.611c-3.441,12.725-6.207,25.641-9.937,38.275c-1.668,5.649-2.285,11.175-1.108,16.692
		c3.157,14.789,4.056,29.862,4.198,44.797c0.16,16.859,2.556,33.829-0.864,50.687c-0.655,3.229,0.125,6.762,0.336,10.149
		c0.14,2.254,0.68,4.503,0.639,6.746c-0.217,12.032-0.575,24.062-0.851,36.093c-0.103,4.491-0.355,9.018,1.598,13.078
		c12.946,4.698,24.357,4.123,36.35-1.862c1.376-14.794,3.636-29.766,3.961-44.779c0.491-22.642,3.416-45.015,5.599-67.475
		c1.056-10.861,3.111-21.66,4.257-32.443c1.111-10.457,2.339-20.953,3.395-31.439c2.121-21.059,6.71-41.521,14.186-61.419
		c5.606-14.924,14.427-28.12,21.146-42.423c7.5-15.965,16.751-31.16,20.875-48.584c0.691-2.921,1.813-5.747,2.836-8.581
		c5.941-16.452,8.388-33.586,9.381-50.908c0.538-9.379-0.109-18.82-0.064-28.233c0.045-9.334,1.324-18.585,0.328-28.02
		c-1.262-11.96-1.153-24.058-1.893-36.081c-0.812-13.184-1.631-26.332,1.037-39.429c0.359-1.761-0.189-3.707-0.323-5.568
		c-0.161-2.238-0.654-4.508-0.433-6.707c0.938-9.331,1.116-18.709,2.096-28.062c1.252-11.96,1.932-24.011,3.642-35.955
		c0.093-0.649-0.446-1.389-0.901-2.684c-4.188-1.535-8.721-3.31-13.329-4.865c-14.425-4.869-27.529-11.372-38.082-23.14
		c-7.673-8.557-11.993-17.827-14.049-28.87c-2.591-13.913-1.655-27.799-0.881-41.711c0.185-3.322,1.216-6.628,2.167-9.851
		c0.218-0.739,1.929-1.726,2.576-1.503c1.227,0.422,3.006,1.556,3.103,2.537c0.368,3.734,0.504,7.564,0.094,11.288
		c-1.12,10.176-0.971,20.34,0.223,30.451c0.791,6.699,2.381,13.304,3.614,19.951c5.752,6.93,9.924,15.176,17.272,20.776
		c1.788,1.362,3.446,3.082,5.461,3.923c7.989,3.335,16.013,6.625,24.177,9.498c22.123,7.784,45.039,12.05,68.305,14.363
		c9.494,0.943,18.315,4.242,27.418,6.549c2.123,0.539,4.236,1.728,5.964,3.107c5.293,4.224,10.436,8.639,15.554,13.076
		c1.991,1.726,3.549,4.003,5.67,5.518c9.444,6.749,18.683,9.239,28.193,2.319c6.002-4.367,10.854-10.372,15.981-15.867
		c4.183-4.483,6.771-9.917,8-15.957c6.693-5.881,8.244-13.026,5.237-21.293c2.297-8.342-1.549-15.466-4.728-22.617
		c-2.314-5.205-6.054-9.265-10.677-12.866c-11.289-8.794-24.308-15.181-34.714-25.163c-11.424-5.621-18.104-16.688-27.838-24.248
		c-4.742-8.185-12.823-13.784-17.158-22.336c-1.481-2.923-3.866-5.387-5.982-8.257c-1.378,1.383-2.311,2.632-3.524,3.477
		c-3.663,2.549-7.444,1.576-9.262-2.322c-0.46-0.986-0.67-2.115-0.842-3.202c-1.501-9.513-1.959-18.846,5.398-26.742
		C1028.739,233.57,1022.561,215.74,1002.071,206.74z M668.879,464.479c5.716,1.412,10.369-0.431,15.031-1.098
		c2.358-0.337,4.319-0.498,6.387,0.88c4.279,2.85,8.416,2.163,12.663-0.462c3.512-2.171,7.496-3.586,10.976-5.801
		c6.355-4.047,13.819-5.738,19.981-10.353c8.426-6.311,17.265-12.132,26.278-17.582c9.845-5.953,17.737-13.958,25.46-22.239
		c3.087-3.311,5.962-6.828,9.163-10.022c12.615-12.589,23.561-26.304,31.675-42.357c4.528-8.958,10.82-16.791,14.613-26.458
		c7.132-18.176,16.166-35.605,24.376-53.36c2.998-6.484,5.546-13.203,8.917-19.483c8.171-15.222,16.704-30.25,25.402-45.916
		c-8.138-11.009-14.617-23.325-23.422-34.876c-7.01,4.324-13.749,8.178-20.148,12.532c-4.346,2.957-8.069,6.815-12.326,9.921
		c-8.788,6.41-14.334,15.261-19.625,24.484c-6.807,11.867-8.597,25.644-14.935,37.68c-3.495,6.637-5.799,13.942-9.634,20.351
		c-13.343,22.3-30.704,40.89-52.596,55.13c-3.362,2.187-7.551,3.679-9.074,8.363c3.314,1.405,6.482,0.373,9.715,0.116
		c6.668-0.529,10.522,4.592,8.525,10.999c-0.446,1.43-1.073,2.838-1.828,4.132c-7.247,12.417-15.777,23.901-25.613,34.376
		c-2.021,2.152-4.692,3.696-7.08,5.499c-1.786,1.348-3.699,2.545-5.378,4.013c-7.076,6.185-13.925,12.634-22.177,17.34
		c-1.432,0.817-2.387,2.47-3.884,4.085c3.163,1.186,5.707,1.901,8.027,3.065c3.499,1.755,4.658,5.09,2.791,8.514
		c-1.422,2.608-3.127,5.241-5.293,7.22c-3.319,3.033-7.131,5.53-10.757,8.222c-4.227,3.138-8.512,6.198-12.698,9.389
		C671.257,461.644,670.394,462.859,668.879,464.479z M318.341,1001.469c0.602-4.621,1.385-8.629,1.603-12.667
		c0.791-14.66,0.728-29.401,2.258-43.977c1.452-13.827,4.268-27.53,6.899-41.208c3.536-18.386,13.983-32.425,29.44-42.359
		c7.895-5.074,15.516-10.555,23.492-15.485c9.606-5.937,19.001-11.994,26.168-21.04c4.899-6.183,10.524-11.787,15.615-17.825
		c1.323-1.569,1.863-3.797,3.113-6.471c-8.599-3.557-16.478-6.817-24.553-10.158c-2.256,1.948-4.227,3.633-6.18,5.339
		c-9.064,7.924-17.836,16.216-27.255,23.692c-12.369,9.818-25.399,18.799-37.833,28.538c-5.274,4.131-10.493,8.732-14.423,14.084
		c-5.799,7.899-10.05,16.865-11.753,26.687c-2.251,12.98-4.192,26.013-6.291,39.02c-0.358,2.219-0.926,4.406-1.242,6.63
		c-0.419,2.945-0.817,5.904-0.991,8.871c-0.444,7.52,0.341,15.319-1.428,22.498c-1.842,7.477-1.848,14.835-2.251,22.3
		c-0.183,3.372-0.933,6.714-1.12,10.086c-0.139,2.507,0.215,5.042,0.374,8.021C301.037,1006.286,308.861,1003.655,318.341,1001.469z
		 M946.003,192.286c7.968,0.325,14.601,2.025,21.016,5.822c5.362,3.174,11.763,4.641,17.785,6.616
		c1.277,0.419,2.907-0.237,4.906-0.457c-0.567-1.76-0.804-3.224-1.482-4.442c-1.275-2.291-2.736-4.489-4.252-6.632
		c-1.076-1.521-2.984-2.709-3.465-4.354c-2.569-8.775-9.156-14.539-15.16-20.681c-14.536-14.872-31.783-19.051-51.547-12.405
		c-4.278,1.439-8.547,2.932-12.712,4.662c-1.536,0.638-2.758,2.03-5.669,4.265c11.123,1.182,20.057,3.175,28.363,7.706
		C932.622,177.207,939.292,184.239,946.003,192.286z M847.177,1028.284c-0.363,5.758-0.96,10.629-0.888,15.49
		c0.062,4.124,2.211,6.33,6.31,6.583c7.515,0.464,15.055,0.585,22.586,0.707c2.578,0.042,4.372-1.635,4.749-4.022
		c0.395-2.508,0.867-5.517-0.139-7.614c-1.479-3.081-1.036-5.734-0.469-8.706c0.248-1.303-0.169-2.732-0.344-4.828
		C868.518,1029.167,858.446,1029.008,847.177,1028.284z M807.517,1031.396c-0.733-0.244-1.437-0.725-2.079-0.653
		c-7.823,0.879-15.597,1.635-23.401-0.48c-1.967-0.533-4.258,0.128-7.143,0.28c0.329,7.395,0.624,14.021,0.925,20.778
		c2.092,0.68,3.502,1.591,4.843,1.499c7.804-0.536,15.605-1.196,23.375-2.09c1.619-0.186,3.106-1.531,4.115-2.06
		C807.917,1042.28,807.717,1036.825,807.517,1031.396z M259.311,1011.674c-0.47,4.813-0.906,8.504-1.168,12.208
		c-0.237,3.366-0.472,6.753-0.352,10.118c0.09,2.498,1.693,4.47,4.266,4.285c5.877-0.421,11.986,0.631,17.569-2.015
		c0.406-1.344,0.967-2.397,1.01-3.471c0.265-6.666,0.413-13.338,0.614-20.51C274.366,1012.096,267.374,1011.9,259.311,1011.674z
		 M290.017,1032.264c9.625,0.629,17.509-0.691,25.4-3.343c0.607-2.944,1.344-5.441,1.59-7.986c0.317-3.282,0.24-6.601,0.35-10.551
		c-4.792,0.968-8.701,1.955-12.671,2.507c-4.366,0.606-8.788,0.811-13.705,1.236c-0.352,2.007-0.963,4.136-1.051,6.287
		C289.783,1024.066,289.964,1027.732,290.017,1032.264z M988.393,184.919c10.998-14.325,14.209-23.769,12.178-34.282
		c-11.608,6.604-19.388,12.527-23.917,18.418C980.264,173.933,983.977,178.951,988.393,184.919z"/>
	<path fill="#D795B2" d="M1142.366,397.29c2.297-8.341-1.548-15.466-4.728-22.617c-2.314-5.205-6.054-9.265-10.677-12.866
		c-11.289-8.794-24.308-15.181-34.714-25.163c-11.424-5.621-18.104-16.688-27.837-24.249c-4.741-8.185-12.824-13.784-17.159-22.336
		c-1.481-2.923-3.865-5.387-5.981-8.257c-1.379,1.383-2.311,2.632-3.525,3.477c-3.663,2.549-7.444,1.576-9.262-2.322
		c-0.46-0.986-0.671-2.115-0.842-3.203c-1.501-9.513-1.959-18.846,5.398-26.742c-4.3-19.444-10.478-37.274-30.968-46.274
		c-1.217,1.559-2.115,3.932-3.541,4.31c-5.045,1.339-10.152,2.528-15.475,0.337c-7.641-3.147-15.483-5.805-23.211-8.749
		c-2.674-1.019-4.93-1.416-6.88,1.457c-1.334,1.964-3.492,1.422-4.962,0.13c-4.803-4.224-9.766-8.34-14.068-13.044
		c-6.543-7.152-14.55-11.892-23.299-15.555c-7.226-3.026-15.931-3.109-22.961-0.47c7.271,12.825,14.141,25.836,25.31,35.812
		c1.51,1.349,3.371,3.158,6.525,1.486c-6.939-7.729-8.048-19.553-18.664-24.445c-0.287-0.132-0.559-0.604-0.587-0.938
		c-0.089-1.069-0.423-2.347,0.025-3.165c0.436-0.794,1.671-1.29,2.655-1.591c0.637-0.195,1.541,0.025,2.176,0.352
		c7.032,3.618,14.186,7.035,20.99,11.046c4.46,2.629,9.128,5.38,11.382,10.489c-2.814,3.028-3.704,3.409-5.283,2.458
		c-3.039-1.831-4.842-5.853-9.292-5.294c-1.722,2.89,1.223,4.886,1.327,7.359c0.101,2.394-0.098,4.8-0.185,7.902
		c3.899,0.109,7.286-0.009,10.604,0.415c1.146,0.146,2.761,1.495,3.003,2.558c0.274,1.204-0.359,3.213-1.311,3.953
		c-1.361,1.057-3.468,1.964-5.083,1.732c-4.805-0.691-9.599-1.724-14.258-3.1c-3.472-1.025-6.727-2.79-10.121-4.243
		c-7.849,9.688-13.339,19.928-19.11,30.086c-11.578,20.376-19.946,42.16-28.988,63.636c-6.606,15.692-14.145,30.777-23.603,44.931
		c-3.13,4.683-5.904,9.609-8.728,14.488c-4.915,8.49-10.333,16.507-16.917,23.92c-7.769,8.748-15.091,17.797-25.086,24.174
		c-0.311,0.199-0.552,0.512-0.818,0.779c-4.785,4.775-9.154,10.045-16.005,12.183c-1.323,0.412-2.37,1.808-3.465,2.834
		c-7.102,6.659-14.715,12.654-22.966,17.832c-16.956,10.641-35.491,18.169-53.346,27.038c-1.634,0.812-3.709,1.671-5.358,1.354
		c-7.122-1.368-13.281,1.719-19.729,3.617c-11.557,3.402-23.059,7.122-35.357,6.622c-1.495-0.061-3.032,0.034-4.5,0.318
		c-11.88,2.301-23.988,1.934-35.968,2.613c-11.585,0.657-23.186,1.77-34.938,0.812c-12.347-1.007-24.847-0.384-37.272-0.111
		c-12.784,0.281-25.427-2.243-38.219-1.596c-1.853,0.094-3.831-0.141-5.589-0.718c-6.546-2.148-13.491-1.462-20.01-2.774
		c-6.716-1.352-13.388-1.844-20.121-2.395c-1.878-0.154-3.793-0.049-5.64-0.366c-17.817-3.056-35.756-4.377-53.826-4.005
		c-8.295,0.171-16.704-0.558-24.861,0.567c-15.623,2.154-30.982,5.53-46.008,10.8c-13.735,4.818-25.899,11.909-37.588,20.285
		c-7.462,5.347-13.307,12.234-19.097,19.115c-5.328,6.332-11.46,11.543-18.112,15.955c-6.41,11.933-12.145,24.383-17.476,36.768
		c0.719,0.467,1.52,1.102,2.542,2.086c-6.994,12.416-12.242,25.629-13.714,40.099c-1.141,11.22-4.078,22.29-2.822,33.708
		c1.276,11.591,2.312,23.216,3.953,34.755c1.058,7.435,2.947,14.758,4.592,22.102c2.223,9.924,4.422,19.857,6.928,29.711
		c1.183,4.653,4.216,8.952,1.897,14.087c-0.25,0.552,0.061,1.478,0.343,2.131c2.81,6.493,5.523,13.034,8.549,19.426
		c3.857,8.151,7.892,16.222,12.042,24.229c1.196,2.307,3.099,4.239,4.595,6.401c8.141,11.77,16.781,23.215,22.716,36.385
		c2.526,5.607,4.013,11.275,3.844,17.475c-0.625,22.958-1.038,45.921-1.666,68.879c-0.217,7.907-0.849,15.802-1.264,23.703
		c-0.593,11.276-1.175,22.554-1.717,33.833c-0.053,1.117,0.124,2.263,0.327,3.371c0.526,2.869,2.396,4.903,5.321,4.969
		c5.915,0.134,11.902,0.694,18.317-1.015c0.35-5.533,0.47-10.764,1.069-15.939c0.647-5.603,2.505-11.153,2.503-16.727
		c-0.004-18.161,3.031-36.016,4.729-54c1.569-16.619,5.406-32.736,12.343-47.982c1.698-3.732,3.725-7.507,6.405-10.557
		c5.216-5.938,10.51-11.989,16.647-16.897c13.779-11.019,26.928-22.987,42.879-31.04c0.965-0.487,1.892-1.304,2.505-2.196
		c7.1-10.345,17.273-17.758,25.953-26.536c14.698-14.863,27.975-30.377,37.023-49.404c5.263-11.066,8.829-22.352,8.554-34.657
		c-0.093-4.135-0.744-8.256-0.902-12.392c-0.187-4.888-0.154-9.787-0.102-14.679c0.005-0.5,0.786-0.992,1.638-1.996
		c2.686,1.518,3.843,3.813,4.723,6.886c4.725,16.518,2.847,32.837-1.963,48.794c-5.87,19.477-17.472,35.716-31.057,50.59
		c-2.528,2.768-5.589,5.11-6.506,9.44c1.177,0.722,2.334,1.728,3.68,2.212c10.989,3.956,21.988,7.887,33.035,11.68
		c8.177,2.807,16.302,5.914,24.68,7.948c10.569,2.566,21.354,4.264,32.077,6.168c6.298,1.119,12.63,2.148,18.989,2.795
		c10.465,1.064,20.952,1.999,31.451,2.597c14.313,0.815,28.654,1.866,42.971,1.701c14.283-0.165,28.54-1.991,42.829-2.578
		c21.869-0.898,43.422-4.28,65.023-7.413c22.76-3.301,45.157-8.106,67.031-15.285c3.914-1.284,7.984-2.163,12.04-2.913
		c1.915-0.354,3.772,0.465,4.441,2.609c0.69,2.21-0.443,3.513-2.422,4.297c-3.101,1.23-6.194,2.48-9.447,3.784
		c-0.058,2.052-0.138,3.529-0.135,5.007c0.065,24.503,1.02,48.977-0.066,73.516c-1.284,29.002-0.883,58.075-1.486,87.112
		c-0.171,8.229-1.296,16.439-2.092,25.947c2.186,2.508,3.859,7.151,2.07,11.416c-2.461,5.865-1.296,10.793,1.101,15.651
		c9.138,4.203,18.392,5.061,27.922,3.517c5.395-0.874,6.911-2.233,7.653-8.029c2.396-18.692,4.753-37.391,6.87-56.117
		c2.496-22.069,4.641-44.177,7.125-66.248c0.716-6.357,2.224-12.621,3.124-18.962c1.695-11.938,3.185-23.904,4.809-35.851
		c2.23-16.396,6.809-32.384,8.248-48.94c0.635-7.291,4.766-13.378,9.141-19.105c0.333-0.435,1.411-0.558,2.057-0.421
		c0.624,0.133,1.493,0.703,1.626,1.237c0.356,1.435,0.553,2.96,0.502,4.438c-0.297,8.698-1.767,17.194-4.043,25.611
		c-3.44,12.725-6.206,25.641-9.936,38.275c-1.668,5.649-2.286,11.175-1.108,16.693c3.157,14.788,4.056,29.862,4.198,44.797
		c0.16,16.858,2.556,33.829-0.865,50.686c-0.655,3.229,0.126,6.762,0.336,10.149c0.14,2.254,0.68,4.502,0.639,6.746
		c-0.217,12.032-0.574,24.062-0.85,36.093c-0.103,4.491-0.356,9.018,1.598,13.079c12.946,4.698,24.357,4.122,36.349-1.862
		c1.376-14.794,3.636-29.766,3.962-44.779c0.49-22.642,3.415-45.015,5.599-67.475c1.055-10.861,3.11-21.66,4.256-32.443
		c1.112-10.457,2.339-20.953,3.395-31.439c2.122-21.059,6.71-41.521,14.186-61.419c5.606-14.923,14.427-28.12,21.146-42.423
		c7.501-15.965,16.751-31.16,20.876-48.585c0.691-2.921,1.813-5.747,2.835-8.581c5.941-16.451,8.389-33.586,9.382-50.908
		c0.537-9.379-0.109-18.821-0.064-28.233c0.045-9.334,1.325-18.584,0.328-28.019c-1.262-11.96-1.153-24.058-1.893-36.081
		c-0.812-13.184-1.631-26.332,1.037-39.429c0.358-1.761-0.19-3.707-0.323-5.568c-0.161-2.238-0.655-4.508-0.433-6.707
		c0.938-9.331,1.116-18.708,2.095-28.062c1.252-11.959,1.932-24.011,3.641-35.955c0.093-0.649-0.446-1.389-0.901-2.684
		c-4.187-1.535-8.721-3.31-13.329-4.865c-14.425-4.869-27.529-11.372-38.082-23.14c-7.673-8.557-11.993-17.827-14.05-28.87
		c-2.591-13.913-1.655-27.799-0.881-41.711c0.186-3.322,1.216-6.628,2.168-9.851c0.217-0.739,1.929-1.726,2.575-1.504
		c1.227,0.422,3.006,1.556,3.103,2.537c0.368,3.734,0.504,7.564,0.094,11.288c-1.121,10.176-0.971,20.34,0.223,30.451
		c0.791,6.699,2.381,13.304,3.614,19.951c5.751,6.93,9.924,15.176,17.272,20.776c1.787,1.362,3.445,3.082,5.461,3.923
		c7.99,3.335,16.013,6.625,24.178,9.498c22.123,7.784,45.038,12.05,68.305,14.363c9.493,0.943,18.314,4.242,27.418,6.549
		c2.124,0.539,4.237,1.728,5.964,3.107c5.293,4.224,10.436,8.64,15.554,13.076c1.991,1.726,3.548,4.003,5.669,5.519
		c9.444,6.749,18.683,9.239,28.193,2.319c6.002-4.367,10.853-10.372,15.98-15.867c4.183-4.483,6.771-9.917,8.001-15.957
		C1143.823,412.702,1145.373,405.557,1142.366,397.29z M977.41,293.934c-2.293,4.955-8.887,4.817-11.689-0.057
		c-1.262-2.195-2.199-4.777-2.508-7.278c-0.643-5.214-0.113-10.371,1.823-15.381c2.257-5.843,3.738-7.152,8.57-6.686
		c6.039,0.583,7.867,2.222,8.823,8.031c0.242,1.465,0.306,2.959,0.593,5.874C981.472,282.824,979.885,288.584,977.41,293.934z
		 M1100.083,407.12c-0.815,2.799-2.921,4.345-5.598,5.057c-2.965,0.788-5.345-0.698-6.795-2.953
		c-4.587-7.135-6.48-15.169-6.791-23.554c-0.1-2.677,2.257-5.376,4.556-5.772c2.675-0.461,5.706-0.56,7.182,1.992
		c3.753,6.491,7.54,13.048,8.339,20.857C1100.689,404.185,1100.501,405.686,1100.083,407.12z M1128.808,409.51
		c-1.422,2.556-4.108,2.579-6.797,0.872c-4.383-2.78-5.633-7.093-5.193-11.691c0.692-7.226,3.693-13.745,8.156-19.437
		c2.816-3.592,6.989-2.787,8.805,1.552c1.001,2.391,1.553,4.969,2.221,7.18C1134.599,395.783,1132.472,402.927,1128.808,409.51z"/>
	<path fill="#D795B2" d="M207.268,559.778c-18.906,8.127-36.075,18.372-50.523,33.222c-14.453,14.855-24.857,32.149-32.598,51.185
		c-1.269,3.122-2.226,6.453-2.753,9.778c-1.24,7.821-2.295,15.679-3.138,23.553c-2.372,22.127-5.966,44.054-11.415,65.619
		c-6.516,25.789-18.596,48.463-38.908,66.236c-1.306,1.143-2.325,2.617-3.479,3.939c2.026,1.883,3.335,0.411,4.544-0.029
		c3.174-1.157,6.158-2.839,9.341-3.958c3.715-1.305,6.869,1.013,6.819,5.031c-0.06,4.886-0.161,9.769-2.655,14.295
		c-3.272,5.939-6.23,12.05-9.377,18.059c-2.76,5.271-5.589,10.504-6.519,17.03c2.263,0.632,4.059,1.688,5.714,1.501
		c7.836-0.882,15.564-2.082,23.125-4.77c13.534-4.813,24.442-13.425,34.553-23.058c8.72-8.308,16.843-17.361,22.948-27.831
		c8.828-15.138,13.973-31.816,17.045-48.875c3.067-17.036,4.19-34.413,6.534-51.59c2.341-17.169,1.541-34.486,2.788-51.72
		c1.135-15.682,3.941-30.485,10.816-44.561c1.815-3.719,3.152-7.694,5.188-11.28c2.777-4.892,5.869-9.626,9.116-14.223
		c1.075-1.522,2.119-1.693,3.753-0.63c5.331-12.385,11.067-24.835,17.476-36.768C219.877,553.772,213.701,557.013,207.268,559.778z"
		/>
	<path fill="#D795B2" d="M668.879,464.479c1.516-1.619,2.378-2.835,3.51-3.697c4.185-3.191,8.471-6.251,12.698-9.389
		c3.627-2.692,7.438-5.19,10.757-8.222c2.166-1.979,3.871-4.613,5.293-7.22c1.867-3.424,0.708-6.758-2.791-8.514
		c-2.32-1.163-4.864-1.879-8.027-3.065c1.498-1.614,2.452-3.268,3.884-4.085c8.252-4.705,15.101-11.155,22.177-17.34
		c1.679-1.467,3.593-2.665,5.378-4.013c2.388-1.803,5.06-3.346,7.08-5.499c9.836-10.476,18.365-21.959,25.613-34.376
		c0.755-1.294,1.382-2.702,1.828-4.132c1.997-6.407-1.857-11.528-8.525-10.999c-3.232,0.257-6.401,1.289-9.715-0.116
		c1.522-4.684,5.711-6.176,9.074-8.363c21.892-14.241,39.252-32.83,52.596-55.13c3.835-6.409,6.139-13.714,9.634-20.351
		c6.338-12.036,8.128-25.814,14.935-37.68c5.291-9.224,10.837-18.074,19.625-24.484c4.257-3.105,7.98-6.963,12.326-9.921
		c6.399-4.355,13.139-8.209,20.148-12.532c8.805,11.551,15.284,23.867,23.422,34.876c-8.698,15.666-17.232,30.694-25.402,45.916
		c-3.371,6.28-5.919,12.999-8.917,19.483c-8.21,17.755-17.244,35.184-24.376,53.36c-3.793,9.667-10.085,17.5-14.613,26.458
		c-8.114,16.053-19.059,29.768-31.675,42.357c-3.201,3.194-6.076,6.711-9.163,10.022c-7.722,8.281-15.615,16.286-25.46,22.239
		c-9.013,5.45-17.852,11.271-26.278,17.582c-6.161,4.615-13.625,6.306-19.981,10.353c-3.479,2.215-7.464,3.63-10.976,5.801
		c-4.246,2.625-8.384,3.313-12.663,0.462c-2.068-1.378-4.029-1.217-6.387-0.88C679.248,464.048,674.595,465.89,668.879,464.479z"/>
	<path fill="#D795B2" d="M318.341,1001.469c-9.48,2.186-17.304,4.817-26.356,4.576c-0.159-2.979-0.513-5.514-0.374-8.021
		c0.187-3.372,0.937-6.714,1.12-10.086c0.403-7.466,0.408-14.823,2.251-22.3c1.769-7.179,0.983-14.978,1.428-22.498
		c0.175-2.967,0.573-5.926,0.991-8.871c0.316-2.224,0.884-4.411,1.242-6.63c2.099-13.006,4.039-26.04,6.291-39.02
		c1.703-9.821,5.955-18.788,11.753-26.687c3.929-5.352,9.149-9.953,14.423-14.084c12.434-9.739,25.464-18.72,37.833-28.538
		c9.419-7.476,18.191-15.768,27.255-23.692c1.952-1.707,3.924-3.391,6.18-5.339c8.076,3.341,15.954,6.6,24.553,10.158
		c-1.249,2.674-1.79,4.902-3.113,6.471c-5.091,6.038-10.716,11.642-15.615,17.825c-7.167,9.046-16.562,15.104-26.168,21.04
		c-7.976,4.93-15.597,10.41-23.492,15.485c-15.457,9.934-25.904,23.973-29.44,42.359c-2.631,13.678-5.448,27.382-6.899,41.208
		c-1.53,14.577-1.466,29.317-2.258,43.977C319.726,992.839,318.943,996.847,318.341,1001.469z"/>
	<path fill="#D795B2" d="M946.003,192.286c-6.712-8.047-13.381-15.078-22.217-19.899c-8.306-4.531-17.24-6.524-28.363-7.706
		c2.911-2.235,4.133-3.627,5.669-4.265c4.165-1.73,8.434-3.223,12.712-4.662c19.763-6.646,37.011-2.467,51.547,12.405
		c6.004,6.142,12.591,11.906,15.16,20.681c0.482,1.645,2.389,2.833,3.465,4.354c1.516,2.143,2.977,4.341,4.252,6.632
		c0.678,1.218,0.914,2.681,1.482,4.442c-1.998,0.219-3.628,0.875-4.906,0.457c-6.022-1.975-12.423-3.442-17.785-6.616
		C960.604,194.311,953.971,192.611,946.003,192.286z"/>
	<path fill="#FFFFFF" d="M847.177,1028.284c11.268,0.724,21.34,0.883,31.805-2.389c0.175,2.095,0.593,3.525,0.344,4.828
		c-0.567,2.972-1.01,5.625,0.469,8.706c1.007,2.097,0.534,5.105,0.139,7.614c-0.376,2.387-2.171,4.063-4.749,4.022
		c-7.532-0.122-15.071-0.243-22.586-0.707c-4.1-0.253-6.248-2.458-6.31-6.583C846.217,1038.913,846.815,1034.042,847.177,1028.284z"
		/>
	<path fill="#FFFFFF" d="M807.517,1031.396c0.2,5.429,0.4,10.884,0.635,17.275c-1.009,0.529-2.495,1.874-4.115,2.06
		c-7.77,0.894-15.571,1.554-23.375,2.09c-1.341,0.092-2.751-0.819-4.843-1.499c-0.301-6.757-0.596-13.383-0.925-20.778
		c2.885-0.151,5.176-0.813,7.143-0.28c7.804,2.115,15.578,1.359,23.401,0.48C806.08,1030.671,806.784,1031.152,807.517,1031.396z"/>
	<path fill="#FFFFFF" d="M259.311,1011.674c8.063,0.226,15.055,0.422,21.939,0.615c-0.201,7.172-0.349,13.843-0.614,20.51
		c-0.043,1.074-0.604,2.127-1.01,3.471c-5.583,2.646-11.691,1.594-17.569,2.015c-2.574,0.185-4.177-1.787-4.266-4.285
		c-0.12-3.365,0.115-6.751,0.352-10.118C258.405,1020.178,258.842,1016.487,259.311,1011.674z"/>
	<path fill="#FFFFFF" d="M290.017,1032.264c-0.053-4.532-0.234-8.198-0.086-11.85c0.087-2.151,0.698-4.281,1.051-6.287
		c4.917-0.425,9.339-0.63,13.705-1.236c3.97-0.551,7.88-1.539,12.671-2.507c-0.111,3.95-0.034,7.269-0.35,10.551
		c-0.246,2.545-0.984,5.043-1.59,7.986C307.526,1031.573,299.642,1032.893,290.017,1032.264z"/>
	<path fill="#D795B2" d="M988.393,184.919c-4.416-5.967-8.13-10.985-11.74-15.864c4.529-5.891,12.309-11.814,23.917-18.418
		C1002.602,161.15,999.392,170.594,988.393,184.919z"/>
	<path fill="#102039" d="M983.023,278.437c-1.551,4.387-3.138,10.148-5.613,15.498c-2.293,4.955-8.887,4.817-11.689-0.057
		c-1.262-2.195-2.199-4.777-2.507-7.278c-0.643-5.214-0.113-10.371,1.822-15.382c2.257-5.843,3.739-7.152,8.57-6.686
		c6.039,0.583,7.868,2.222,8.824,8.031C982.671,274.028,982.736,275.522,983.023,278.437z"/>
	<path fill="#102039" d="M1136,387.985c-1.401,7.797-3.527,14.942-7.192,21.525c-1.423,2.556-4.107,2.579-6.797,0.872
		c-4.383-2.78-5.632-7.093-5.192-11.691c0.692-7.226,3.693-13.745,8.155-19.437c2.816-3.592,6.989-2.787,8.805,1.552
		C1134.779,383.196,1135.331,385.775,1136,387.985z"/>
	<path fill="#102039" d="M1100.975,402.747c-0.286,1.439-0.475,2.939-0.892,4.373c-0.815,2.799-2.92,4.345-5.598,5.057
		c-2.965,0.788-5.345-0.698-6.795-2.953c-4.587-7.135-6.48-15.169-6.792-23.554c-0.099-2.677,2.257-5.376,4.556-5.772
		c2.675-0.461,5.706-0.56,7.182,1.992C1096.389,388.381,1100.176,394.938,1100.975,402.747z"/>
</g>
</svg>
